<svg width="366" height="222" viewBox="0 0 366 222" fill="none" xmlns="http://www.w3.org/2000/svg">
<path d="M290.463 33.9268C292.904 32.7164 296.069 34.1268 297.532 37.0771C298.368 38.7632 298.464 40.5858 297.939 42.0653L297.973 42.1324L307.568 59.215L324.74 50.1869C327.959 48.2037 331.837 47.6695 334.079 50.714C336.857 54.4865 335.392 59.8633 331.084 61.705L308.678 71.2847C305.494 72.6456 301.811 71.1649 300.455 67.9795L292.413 44.8047C290.918 44.3263 289.526 43.1463 288.69 41.4602C287.227 38.51 288.021 35.1372 290.463 33.9268Z" fill="#9B616A"/>
<path d="M331.833 45.0735L312.047 54.9191L319.544 69.4503L339.461 57.6828" fill="white"/>
<path d="M310.155 204.34H302.735V214.119H310.155V204.34Z" fill="#9B616A"/>
<path d="M308.889 220.868H293.117C291.769 220.868 290.414 220.56 289.199 219.976L286.292 218.578C285.691 218.289 285.302 217.671 285.302 217.004C285.302 216.222 285.829 215.53 286.583 215.321L292.581 213.662L302.843 208.268L302.851 208.306C303.043 209.278 303.34 210.747 303.378 210.836C304.43 212.041 305.511 212.597 306.591 212.487C308.474 212.297 309.726 210.122 309.739 210.1L309.748 210.083L309.768 210.085C310.209 210.131 310.535 210.308 310.737 210.614C311.167 211.261 310.905 212.259 310.862 212.41C311.376 212.913 311.607 215.724 311.625 215.951C312.369 216.74 312.723 217.498 312.676 218.205C312.635 218.822 312.292 219.396 311.657 219.91C310.894 220.528 309.911 220.868 308.889 220.868Z" fill="#090814"/>
<path d="M359.091 199.88L351.967 201.952L354.698 211.342L361.823 209.27L359.091 199.88Z" fill="#9B616A"/>
<path d="M362.492 216.104L347.348 220.51C346.054 220.886 344.667 220.968 343.337 220.747L340.155 220.217C339.497 220.107 338.951 219.623 338.765 218.982C338.546 218.231 338.859 217.42 339.524 217.009L344.82 213.739L353.167 205.694L353.185 205.729C353.641 206.608 354.337 207.935 354.398 208.01C355.745 208.874 356.939 209.105 357.945 208.699C359.7 207.989 360.295 205.551 360.3 205.527L360.305 205.508L360.324 205.504C360.76 205.425 361.123 205.505 361.403 205.741C361.996 206.243 362.023 207.274 362.024 207.431C362.658 207.771 363.665 210.406 363.746 210.618C364.681 211.168 365.232 211.797 365.384 212.489C365.517 213.093 365.349 213.74 364.883 214.41C364.322 215.217 363.473 215.819 362.492 216.104Z" fill="#090814"/>
<path d="M337.962 28.5908C337.962 21.9289 332.562 16.5283 325.9 16.5283C319.238 16.5283 313.837 21.9289 313.837 28.5908C313.837 33.9936 317.39 38.5662 322.286 40.1018L324.618 55.5128L336.505 45.6064C336.505 45.6064 333.937 42.3353 332.56 38.647C335.815 36.4868 337.962 32.7902 337.962 28.5908Z" fill="#9B616A"/>
<path d="M342.722 88.1261L344.463 63.7486C344.614 61.6345 344.347 59.5114 343.677 57.5008L338.517 42.0215L323.318 46.9034L316.904 61.5755L313.411 67.9792C311.821 70.8944 312.342 74.5088 314.69 76.8569L316.904 79.0714L313.817 90.392L314.142 90.3805L313.704 90.4366C313.704 90.4366 293.071 152.518 293.81 205.315H320.297L321.869 144.027L326.47 207.694L361.374 205.684L342.722 88.1261Z" fill="white"/>
<path d="M341.835 44.4397C341.835 44.4397 341.272 48.7133 336.053 48.8528C328.996 49.0416 325.467 49.1359 325.467 49.1359C325.467 49.1359 334.416 27.3574 330.736 29.8109C327.057 32.2644 317.244 21.9785 317.244 21.9785L314.349 27.4087C314.349 27.4087 307.432 24.9039 315.098 18.7701C315.098 18.7701 324.244 11.6986 333.955 15.9451C343.665 20.1915 341.835 44.4397 341.835 44.4397Z" fill="#090814"/>
<path d="M299.025 92.9315C298.885 90.21 301.436 87.866 304.725 87.6961C306.604 87.599 308.315 88.2349 309.464 89.304L309.539 89.3002L329.028 87.2818L327.566 67.9367C327.025 64.1946 328.076 60.4236 331.76 59.5759C336.326 58.5254 340.678 62.0062 340.657 66.6912L340.545 91.0594C340.529 94.5213 337.707 97.3134 334.245 97.2919L309.783 95.4637C308.75 96.6456 307.113 97.4544 305.234 97.5515C301.946 97.7215 299.166 95.653 299.025 92.9315Z" fill="#9B616A"/>
<path d="M325.692 59.396L326.865 81.4654L343.179 80.3589L340.294 57.4055" fill="white"/>
<path d="M0.499939 220.974C0.499939 221.274 0.740123 221.52 1.04637 221.52H364.954C365.254 221.52 365.5 221.28 365.5 220.974C365.5 220.668 365.26 220.427 364.954 220.427H1.04637C0.746136 220.427 0.499939 220.668 0.499939 220.974Z" fill="#2F2E43"/>
<path d="M299.601 27.7842H206.227C203.657 27.7842 201.573 29.8677 201.573 32.4379V32.4379C201.573 35.0081 203.657 37.0916 206.227 37.0916H299.601C302.171 37.0916 304.255 35.0081 304.255 32.4379C304.255 29.8677 302.171 27.7842 299.601 27.7842Z" fill="#5AED86"/>
<path d="M299.601 65.6143H226.343C223.773 65.6143 221.689 67.6978 221.689 70.268V70.268C221.689 72.8382 223.773 74.9217 226.343 74.9217H299.601C302.171 74.9217 304.255 72.8382 304.255 70.268C304.255 67.6978 302.171 65.6143 299.601 65.6143Z" fill="#5AED86"/>
<path d="M285.79 90.2339H299.601C302.171 90.2339 304.255 92.3174 304.255 94.8876C304.255 97.4578 302.171 99.5413 299.601 99.5413H285.79C283.22 99.5413 281.136 97.4578 281.136 94.8876C281.136 92.3174 283.22 90.2339 285.79 90.2339Z" fill="#5AED86"/>
<path d="M155.787 53.6047H86.1313C83.5611 53.6047 81.4775 55.6883 81.4775 58.2584V58.2585C81.4775 60.8286 83.5611 62.9122 86.1313 62.9122H155.787C158.357 62.9122 160.44 60.8286 160.44 58.2584C160.44 55.6883 158.357 53.6047 155.787 53.6047Z" fill="white"/>
<path d="M86.1313 77.6238H106.547C109.118 77.6238 111.201 79.7073 111.201 82.2775C111.201 84.8477 109.118 86.9312 106.547 86.9312H86.1313C83.5611 86.9312 81.4775 84.8477 81.4775 82.2775C81.4775 79.7073 83.5611 77.6238 86.1313 77.6238Z" fill="white"/>
<path d="M299.601 40.9946H232.948C230.378 40.9946 228.294 43.0782 228.294 45.6483V45.6484C228.294 48.2185 230.378 50.3021 232.948 50.3021H299.601C302.171 50.3021 304.255 48.2185 304.255 45.6483C304.255 43.0782 302.171 40.9946 299.601 40.9946Z" fill="#5AED86"/>
<path d="M5.85043 197.068L12.0092 201.608L16.5496 195.449L10.3908 190.909L5.85043 197.068Z" fill="#E8989B"/>
<path d="M1.05996 200.955C0.847557 200.14 0.914254 199.454 1.25829 198.916C1.65177 198.301 2.40914 197.888 3.50923 197.689C3.66291 197.511 5.57495 195.319 6.31011 195.216C6.36639 195.065 6.75937 194.076 7.51241 193.802C7.86715 193.672 8.24678 193.724 8.64078 193.956L8.65793 193.966L8.65556 193.986C8.65245 194.012 8.36087 196.583 9.80733 197.894C10.6366 198.646 11.8739 198.846 13.4851 198.489C13.571 198.439 14.7164 197.402 15.4705 196.712L15.5006 196.685L20.7178 207.442L24.6812 212.49C25.1793 213.125 25.1929 214.021 24.7142 214.671C24.306 215.224 23.6056 215.499 22.9297 215.371L19.661 214.752C18.2952 214.494 16.9818 213.921 15.8629 213.096L2.77151 203.445C1.92334 202.819 1.31549 201.935 1.05996 200.955Z" fill="#090814"/>
<path d="M75.7689 214.627H83.4204V206.976H75.7689V214.627Z" fill="#E8989B"/>
<path d="M74.2196 220.599C73.5651 220.069 73.2119 219.477 73.1696 218.84C73.1213 218.112 73.4859 217.33 74.2531 216.517C74.2715 216.283 74.5097 213.384 75.0403 212.864C74.9958 212.709 74.7255 211.68 75.1686 211.012C75.3773 210.698 75.7137 210.514 76.1685 210.467L76.1883 210.465L76.1981 210.482C76.2109 210.505 77.5021 212.748 79.4443 212.945C80.5578 213.058 81.6726 212.485 82.7579 211.241C82.7969 211.15 83.1035 209.635 83.3014 208.633L83.3093 208.593L93.8918 214.155L100.078 215.867C100.855 216.082 101.398 216.796 101.398 217.603C101.398 218.29 100.998 218.927 100.378 219.226L97.3792 220.667C96.1263 221.269 94.7293 221.587 93.3392 221.587H77.0748C76.021 221.587 75.007 221.236 74.2196 220.599Z" fill="#090814"/>
<path d="M36.7934 85.5273H73.4645L85.6881 207.956H73.4645L54.6208 129.397L49.0171 151.561L18.1569 199.98L6.00223 188.144L32.2107 146.741L36.7934 85.5273Z" fill="#090814"/>
<path d="M47.8098 16.4961C47.8098 9.62605 53.379 4.05688 60.2488 4.05688C67.1189 4.05688 72.6881 9.62605 72.6881 16.4961C72.6881 22.0676 69.0248 26.783 63.9757 28.3666L61.571 44.2589L49.3121 34.0431C49.3121 34.0431 51.9604 30.6699 53.3807 26.8663C50.024 24.6386 47.8098 20.8266 47.8098 16.4961Z" fill="#E8989B"/>
<path d="M53.7254 27.2452C53.7254 27.2452 51.3536 15.245 54.7817 16.6733C58.2097 18.1017 57.2924 20.5163 57.2924 20.5163L60.5776 15.6599V10.0893L62.7202 7.66112L71.8616 11.5177C71.8616 11.5177 76.718 -2.76585 62.863 1.80487C62.863 1.80487 51.0077 -3.05153 47.5796 5.37575C39.4524 24.3598 53.7254 27.2452 53.7254 27.2452Z" fill="#090814"/>
<path d="M36.9191 86.3348L69.4278 86.479C72.1342 86.6156 74.3663 85.0072 74.1096 83.1053L67.9492 37.4564L56.9331 31.6826C54.6091 30.4645 51.7612 30.9151 49.9267 32.7912L43.3986 39.4674C41.6864 41.2185 40.5862 43.2297 40.1878 45.3371L37.1401 75.5587C36.9398 76.6183 37.1116 77.6962 37.6405 78.6982L38.8361 80.9634C40.1034 83.3644 33.2904 86.1517 36.9191 86.3348Z" fill="#5AED86"/>
<path d="M76.3487 91.7677L66.2763 85.1393L70.1464 79.2583L80.2188 85.8867C81.9679 85.4977 84.0194 85.8594 85.8138 87.0403C88.9535 89.1064 90.1126 92.8877 88.4026 95.4861C86.6927 98.0845 82.7614 98.516 79.6216 96.4498C77.8272 95.269 76.6835 93.5279 76.3487 91.7677Z" fill="#E8989B"/>
<path d="M45.9417 53.0971L49.104 78.1704L69.719 91.0103L79.0545 81.8426L58.9787 70.9657L61.9954 41.3843" fill="#5AED86"/>
</svg>
