<svg width="92" height="32" viewBox="0 0 92 32" fill="none" xmlns="http://www.w3.org/2000/svg">
<g clip-path="url(#clip0_5120_904)">
<path d="M63.6188 14.0198C63.2058 13.2363 62.5917 12.6221 61.7657 12.1668C60.9398 11.722 59.902 11.4891 58.6525 11.4891C57.7313 11.4891 56.8206 11.6056 55.9206 11.8279C55.0099 12.0503 54.1522 12.3574 53.358 12.7492L54.4487 15.4388C55.137 15.0999 55.8041 14.8776 56.4394 14.7505C57.0748 14.634 57.6572 14.5705 58.176 14.5705C59.0232 14.5705 59.6267 14.7717 59.9973 15.1846C60.368 15.5976 60.5586 16.0635 60.5586 16.593V17.5248C59.7326 16.9212 58.6525 16.6247 57.3289 16.6247C56.3547 16.6247 55.4864 16.8153 54.724 17.1966C53.9616 17.5778 53.358 18.1178 52.9133 18.8061C52.4686 19.4944 52.2568 20.3097 52.2568 21.2521C52.2568 22.184 52.458 23.0099 52.8709 23.7088C53.2839 24.4077 53.8663 24.9583 54.6393 25.3395C55.4017 25.7207 56.2912 25.9113 57.3077 25.9113C58.5996 25.9113 59.6691 25.6042 60.5162 24.9901C60.6962 24.8524 60.8656 24.7148 61.0245 24.5559L61.3104 25.5195H64.2329V16.7095C64.2435 15.7035 64.0318 14.814 63.6188 14.0198ZM59.9444 22.6075C59.5314 22.9464 58.9914 23.1158 58.3137 23.1158C57.636 23.1158 57.096 22.9464 56.683 22.6075C56.27 22.2687 56.0688 21.824 56.0688 21.2627C56.0688 20.6803 56.27 20.225 56.683 19.8968C57.096 19.5685 57.636 19.4097 58.3137 19.4097C58.9914 19.4097 59.5314 19.5685 59.9444 19.8968C60.3574 20.225 60.5586 20.6803 60.5586 21.2627C60.5586 21.824 60.3574 22.2793 59.9444 22.6075Z" fill="#ECF8F0"/>
<path d="M46.0516 25.9748C44.9821 25.9748 43.9762 25.816 43.0232 25.4983C42.0701 25.1806 41.2124 24.683 40.45 24.0159C39.6876 23.3382 39.0523 22.4593 38.5228 21.3792L41.4454 19.6108C42.0278 20.6062 42.7055 21.3368 43.4891 21.8239C44.2727 22.311 45.1833 22.5546 46.2105 22.5546C47.1423 22.5546 47.8517 22.3534 48.3388 21.951C48.8259 21.5486 49.0695 21.0086 49.0695 20.3415C49.0695 19.9073 48.9636 19.5367 48.7518 19.2296C48.54 18.9225 48.1588 18.626 47.6188 18.3507C47.0788 18.0648 46.2952 17.8213 45.2574 17.5883C43.722 17.2177 42.5255 16.7412 41.6466 16.18C40.7783 15.6188 40.1641 14.9622 39.8041 14.1998C39.4441 13.4374 39.2746 12.6009 39.2746 11.6902C39.2746 10.589 39.5394 9.61479 40.0794 8.78885C40.6089 7.95232 41.3713 7.2958 42.3666 6.80871C43.362 6.32161 44.5374 6.07806 45.9034 6.07806C47.4705 6.07806 48.7942 6.38515 49.8637 6.98872C50.9332 7.59229 51.8015 8.41824 52.4686 9.44537L49.546 11.4361C49.0271 10.7584 48.4236 10.2819 47.767 9.996C47.0999 9.7101 46.4222 9.56185 45.7339 9.56185C44.8339 9.56185 44.1456 9.74186 43.6691 10.0913C43.1926 10.4513 42.949 10.9384 42.949 11.5738C42.949 12.135 43.1926 12.6221 43.6691 13.0245C44.1456 13.4268 45.0774 13.7975 46.4646 14.1363C48.0318 14.5069 49.2919 14.9728 50.2237 15.5129C51.1555 16.0529 51.8226 16.7094 52.225 17.4824C52.6274 18.2448 52.8286 19.1767 52.8286 20.2568C52.8286 21.3368 52.5533 22.311 52.0026 23.1793C51.452 24.037 50.6684 24.7253 49.6413 25.223C48.6353 25.7313 47.4388 25.9748 46.0516 25.9748Z" fill="#ECF8F0"/>
<path d="M74.9067 11.8067L74.4937 13.2998C74.1549 12.9186 73.7737 12.5903 73.3395 12.3256C72.4606 11.7749 71.4441 11.4996 70.2793 11.4996C69.0404 11.4996 67.9497 11.7749 66.9967 12.3468C66.0437 12.908 65.3024 13.6916 64.7624 14.6869C64.233 15.6929 63.9576 16.8471 63.9576 18.1495C63.9576 19.4626 64.233 20.6062 64.773 21.6016C65.313 22.5969 66.0649 23.3699 67.0179 23.9311C67.9709 24.4924 69.0615 24.7783 70.3005 24.7783C71.4758 24.7783 72.503 24.5029 73.3713 23.9629C73.5936 23.8252 73.8054 23.6664 74.0066 23.497V24.3759C74.0066 25.6148 73.7101 26.5254 73.1277 27.129C72.5347 27.7326 71.7617 28.0291 70.8087 28.0291C70.0463 28.0291 69.4004 27.8597 68.9027 27.5102C68.3944 27.1608 67.9073 26.6207 67.4414 25.8689L64.7201 27.2773L64.9424 27.722C65.3766 28.5691 65.8954 29.2362 66.5096 29.7233C67.1238 30.221 67.8015 30.581 68.5427 30.8034C69.2839 31.0258 70.0251 31.1423 70.777 31.1423C72.1853 31.1423 73.3925 30.8563 74.4302 30.2845C75.4573 29.7127 76.2621 28.8656 76.8339 27.7432C77.4057 26.6207 77.6916 25.2548 77.6916 23.6452V11.8067H74.9067ZM73.276 20.5956C72.6724 21.2309 71.8994 21.5486 70.9464 21.5486C69.9934 21.5486 69.2098 21.2309 68.6062 20.5956C68.0026 19.9603 67.6956 19.1449 67.6956 18.1495C67.6956 17.1224 68.0026 16.2859 68.6062 15.6505C69.2098 15.0152 69.9934 14.6975 70.9464 14.6975C71.8994 14.6975 72.6724 15.0152 73.276 15.6505C73.8795 16.2859 74.176 17.1118 74.176 18.1178C74.176 19.1343 73.869 19.9603 73.276 20.5956Z" fill="#ECF8F0"/>
<path d="M90.2819 14.9622C89.7207 13.8822 88.9265 13.035 87.91 12.4209C86.8934 11.8067 85.6863 11.4996 84.2991 11.4996C82.9331 11.4996 81.7366 11.8067 80.7094 12.4103C79.6823 13.0139 78.8881 13.861 78.3269 14.9411C77.7657 16.0211 77.4798 17.2706 77.4798 18.6896C77.4798 20.1297 77.7657 21.3792 78.3269 22.4487C78.8881 23.5182 79.6823 24.3441 80.7094 24.9371C81.7366 25.5301 82.9331 25.816 84.2991 25.816C85.7922 25.816 87.0734 25.5089 88.1323 24.9053C89.1912 24.3018 90.0278 23.4229 90.6419 22.2792L88.09 20.818C87.6982 21.4004 87.2323 21.8875 86.6816 22.2792C86.1416 22.671 85.3898 22.8722 84.4368 22.8722C83.3461 22.8722 82.499 22.5546 81.8742 21.9298C81.3342 21.3898 81.0271 20.6591 80.953 19.7591H91.0443C91.0867 19.632 91.1079 19.4626 91.1184 19.272C91.129 19.0708 91.129 18.8696 91.129 18.6684C91.1184 17.2706 90.8431 16.0423 90.2819 14.9622ZM84.2991 14.3904C85.4639 14.3904 86.311 14.7505 86.8617 15.4811C87.1899 15.9153 87.4123 16.4129 87.5499 16.9953H81.0059C81.133 16.3282 81.4083 15.7776 81.8531 15.3223C82.4778 14.6975 83.2932 14.3904 84.2991 14.3904Z" fill="#ECF8F0"/>
<path d="M7.60291 22.0569C7.49702 22.4593 7.20053 22.7876 6.80874 22.9252C5.31568 23.4547 3.86499 24.1218 2.45665 24.9265C1.36598 25.5513 0 24.7571 0 23.497V22.7876C0 20.5639 1.11185 18.6049 2.95433 17.5989C2.95433 17.5989 2.95433 17.5989 2.96492 17.5989C3.30377 17.4189 3.70615 17.3978 4.06618 17.5566C4.818 17.8848 5.56982 18.1919 6.33223 18.4461C6.67108 18.5625 7.0311 18.679 7.38054 18.7849C7.83587 18.9226 8.13236 19.4097 8.05824 19.8756C7.93117 20.6168 7.78293 21.3369 7.60291 22.0569Z" fill="#5AED86"/>
<path d="M29.0563 14.4011C27.9126 15.0258 26.7373 15.5447 25.5407 16C26.7478 16.4553 27.9232 16.9742 29.0563 17.5989C30.8882 18.6049 32 20.5639 32 22.6605V23.37C32 24.7677 30.6446 25.5619 29.5433 24.9265C27.1608 23.5606 24.6089 22.597 22.004 22.004C22.597 24.6195 23.5606 27.1608 24.9265 29.5539C25.5513 30.6446 24.7571 32.0106 23.497 32.0106H21.6757C20.2674 32.0106 18.9226 31.3011 18.1919 30.094C18.1813 30.0728 18.1602 30.0516 18.1602 30.0304C17.1966 28.4209 14.814 28.4209 13.8504 30.0304C13.8398 30.0516 13.8187 30.0728 13.8187 30.094C13.088 31.3011 11.7538 32.0106 10.0702 32.0106H8.50298C7.24289 32.0106 6.44871 30.6446 7.07346 29.5539C7.14758 29.4375 7.21112 29.3104 7.27465 29.1939C7.29583 29.1621 7.31701 29.1198 7.33819 29.088C8.863 26.3031 9.86896 23.3064 10.3455 20.2568C10.5996 18.6261 9.61482 17.0377 8.03706 16.5612C7.7088 16.4659 7.39113 16.36 7.07346 16.2435C6.86168 16.1694 6.6499 16.0953 6.43812 16.0106C6.44871 16.0106 6.44871 16.0106 6.4593 16C5.70748 15.7247 4.96625 15.407 4.24619 15.0682C4.1403 15.0152 4.02383 14.9623 3.90735 14.9093C3.74851 14.8352 3.60026 14.7505 3.44143 14.6764C3.27201 14.5917 3.10258 14.4964 2.93316 14.4116C1.11185 13.3951 0 11.4361 0 9.33951V8.50298C0 7.24289 1.36598 6.44871 2.45665 7.07346C4.83918 8.43944 7.39113 9.40304 9.99603 9.99603C9.40304 7.38054 8.43944 4.83918 7.07346 2.44606C6.44871 1.36598 7.24289 0 8.50298 0H9.21244C11.4361 0 13.3951 1.11185 14.4011 2.95433C15.0258 4.09795 15.5553 5.26274 16 6.4593C16.4341 5.3051 16.9424 4.16148 17.5354 3.06022C18.552 1.17538 20.5215 0 22.6605 0H23.497C24.7571 0 25.5513 1.36598 24.9265 2.45665C23.5606 4.83918 22.5864 7.39113 22.004 10.0066C24.6195 9.41363 27.1608 8.45003 29.5433 7.08405C30.634 6.4593 32 7.25347 32 8.51357V9.3501C32 11.4361 30.8882 13.3951 29.0563 14.4011Z" fill="#5AED86"/>
</g>
<defs>
<clipPath id="clip0_5120_904">
<rect width="91.1185" height="32" fill="white"/>
</clipPath>
</defs>
</svg>
