<svg width="92" height="32" viewBox="0 0 92 32" fill="none" xmlns="http://www.w3.org/2000/svg">
<g clip-path="url(#clip0_5849_4190)"  fill="#0F172A">
<path d="M63.6188 14.0198C63.2059 13.2363 62.5917 12.6221 61.7658 12.1668C60.9398 11.722 59.9021 11.4891 58.6526 11.4891C57.7314 11.4891 56.8207 11.6056 55.9206 11.8279C55.01 12.0503 54.1523 12.3574 53.3581 12.7492L54.4488 15.4388C55.137 15.0999 55.8042 14.8776 56.4395 14.7505C57.0748 14.634 57.6572 14.5705 58.1761 14.5705C59.0232 14.5705 59.6268 14.7717 59.9974 15.1846C60.368 15.5976 60.5586 16.0635 60.5586 16.593V17.5248C59.7327 16.9212 58.6526 16.6247 57.329 16.6247C56.3548 16.6247 55.4865 16.8153 54.7241 17.1966C53.9617 17.5778 53.3581 18.1178 52.9134 18.8061C52.4686 19.4944 52.2568 20.3097 52.2568 21.2521C52.2568 22.184 52.458 23.0099 52.871 23.7088C53.284 24.4077 53.8664 24.9583 54.6394 25.3395C55.4018 25.7207 56.2913 25.9113 57.3078 25.9113C58.5997 25.9113 59.6691 25.6042 60.5163 24.9901C60.6963 24.8524 60.8657 24.7148 61.0245 24.5559L61.3104 25.5195H64.233V16.7095C64.2436 15.7035 64.0318 14.814 63.6188 14.0198ZM59.9445 22.6075C59.5315 22.9464 58.9915 23.1158 58.3138 23.1158C57.6361 23.1158 57.096 22.9464 56.683 22.6075C56.2701 22.2687 56.0689 21.824 56.0689 21.2627C56.0689 20.6803 56.2701 20.225 56.683 19.8968C57.096 19.5685 57.6361 19.4097 58.3138 19.4097C58.9915 19.4097 59.5315 19.5685 59.9445 19.8968C60.3574 20.225 60.5586 20.6803 60.5586 21.2627C60.5586 21.824 60.3574 22.2793 59.9445 22.6075Z"/>
<path d="M46.0512 25.9748C44.9818 25.9748 43.9758 25.816 43.0228 25.4983C42.0698 25.1806 41.2121 24.683 40.4497 24.0159C39.6873 23.3382 39.0519 22.4593 38.5225 21.3792L41.445 19.6108C42.0274 20.6062 42.7051 21.3368 43.4887 21.8239C44.2723 22.311 45.183 22.5546 46.2101 22.5546C47.1419 22.5546 47.8514 22.3534 48.3385 21.951C48.8256 21.5486 49.0691 21.0086 49.0691 20.3415C49.0691 19.9073 48.9632 19.5367 48.7514 19.2296C48.5397 18.9225 48.1585 18.626 47.6184 18.3507C47.0784 18.0648 46.2948 17.8213 45.2571 17.5883C43.7217 17.2177 42.5251 16.7412 41.6462 16.18C40.7779 15.6188 40.1638 14.9622 39.8037 14.1998C39.4437 13.4374 39.2743 12.6009 39.2743 11.6902C39.2743 10.589 39.539 9.61479 40.079 8.78885C40.6085 7.95232 41.3709 7.2958 42.3663 6.80871C43.3616 6.32161 44.537 6.07806 45.903 6.07806C47.4702 6.07806 48.7938 6.38515 49.8633 6.98872C50.9328 7.59229 51.8011 8.41824 52.4682 9.44537L49.5456 11.4361C49.0268 10.7584 48.4232 10.2819 47.7667 9.996C47.0996 9.7101 46.4219 9.56185 45.7336 9.56185C44.8335 9.56185 44.1452 9.74186 43.6687 10.0913C43.1922 10.4513 42.9487 10.9384 42.9487 11.5738C42.9487 12.135 43.1922 12.6221 43.6687 13.0245C44.1452 13.4268 45.0771 13.7975 46.4642 14.1363C48.0314 14.5069 49.2915 14.9728 50.2233 15.5129C51.1552 16.0529 51.8223 16.7094 52.2246 17.4824C52.627 18.2448 52.8282 19.1767 52.8282 20.2568C52.8282 21.3368 52.5529 22.311 52.0023 23.1793C51.4516 24.037 50.6681 24.7253 49.6409 25.223C48.635 25.7313 47.4384 25.9748 46.0512 25.9748Z"/>
<path d="M74.9061 11.8067L74.4931 13.2998C74.1543 12.9186 73.773 12.5903 73.3389 12.3256C72.46 11.7749 71.4435 11.4996 70.2787 11.4996C69.0398 11.4996 67.9491 11.7749 66.9961 12.3468C66.0431 12.908 65.3018 13.6916 64.7618 14.6869C64.2323 15.6929 63.957 16.8471 63.957 18.1495C63.957 19.4626 64.2323 20.6062 64.7724 21.6016C65.3124 22.5969 66.0642 23.3699 67.0173 23.9311C67.9703 24.4924 69.0609 24.7783 70.2999 24.7783C71.4752 24.7783 72.5024 24.5029 73.3707 23.9629C73.593 23.8252 73.8048 23.6664 74.006 23.497V24.3759C74.006 25.6148 73.7095 26.5254 73.1271 27.129C72.5341 27.7326 71.7611 28.0291 70.8081 28.0291C70.0457 28.0291 69.3998 27.8597 68.9021 27.5102C68.3938 27.1608 67.9067 26.6207 67.4408 25.8689L64.7194 27.2773L64.9418 27.722C65.376 28.5691 65.8948 29.2362 66.509 29.7233C67.1231 30.221 67.8008 30.581 68.5421 30.8034C69.2833 31.0258 70.0245 31.1423 70.7764 31.1423C72.1847 31.1423 73.3918 30.8563 74.4296 30.2845C75.4567 29.7127 76.2615 28.8656 76.8333 27.7432C77.4051 26.6207 77.691 25.2548 77.691 23.6452V11.8067H74.9061ZM73.2754 20.5956C72.6718 21.2309 71.8988 21.5486 70.9458 21.5486C69.9928 21.5486 69.2092 21.2309 68.6056 20.5956C68.002 19.9603 67.695 19.1449 67.695 18.1495C67.695 17.1224 68.002 16.2859 68.6056 15.6505C69.2092 15.0152 69.9928 14.6975 70.9458 14.6975C71.8988 14.6975 72.6718 15.0152 73.2754 15.6505C73.8789 16.2859 74.1754 17.1118 74.1754 18.1178C74.1754 19.1343 73.8683 19.9603 73.2754 20.5956Z"/>
<path d="M90.2816 14.9622C89.7204 13.8822 88.9262 13.035 87.9097 12.4209C86.8931 11.8067 85.686 11.4996 84.2988 11.4996C82.9328 11.4996 81.7363 11.8067 80.7091 12.4103C79.682 13.0139 78.8878 13.861 78.3266 14.9411C77.7654 16.0211 77.4795 17.2706 77.4795 18.6896C77.4795 20.1297 77.7654 21.3792 78.3266 22.4487C78.8878 23.5182 79.682 24.3441 80.7091 24.9371C81.7363 25.5301 82.9328 25.816 84.2988 25.816C85.7919 25.816 87.0731 25.5089 88.132 24.9053C89.1909 24.3018 90.0275 23.4229 90.6416 22.2792L88.0897 20.818C87.6979 21.4004 87.232 21.8875 86.6813 22.2792C86.1413 22.671 85.3895 22.8722 84.4365 22.8722C83.3458 22.8722 82.4987 22.5546 81.8739 21.9298C81.3339 21.3898 81.0268 20.6591 80.9527 19.7591H91.044C91.0864 19.632 91.1076 19.4626 91.1181 19.272C91.1287 19.0708 91.1287 18.8696 91.1287 18.6684C91.1181 17.2706 90.8428 16.0423 90.2816 14.9622ZM84.2988 14.3904C85.4636 14.3904 86.3107 14.7505 86.8614 15.4811C87.1896 15.9153 87.412 16.4129 87.5496 16.9953H81.0056C81.1327 16.3282 81.408 15.7776 81.8528 15.3223C82.4775 14.6975 83.2929 14.3904 84.2988 14.3904Z"/>
<path d="M7.60291 22.0569C7.49702 22.4593 7.20053 22.7876 6.80874 22.9252C5.31568 23.4547 3.86499 24.1218 2.45665 24.9265C1.36598 25.5513 0 24.7571 0 23.497V22.7876C0 20.5639 1.11185 18.6049 2.95433 17.5989C2.95433 17.5989 2.95433 17.5989 2.96492 17.5989C3.30377 17.4189 3.70615 17.3978 4.06618 17.5566C4.818 17.8848 5.56982 18.1919 6.33223 18.4461C6.67108 18.5625 7.0311 18.679 7.38054 18.7849C7.83587 18.9226 8.13236 19.4097 8.05824 19.8756C7.93117 20.6168 7.78293 21.3369 7.60291 22.0569Z" fill="#5AED86"/>
<path d="M29.0563 14.4011C27.9126 15.0258 26.7373 15.5447 25.5407 16C26.7478 16.4553 27.9232 16.9742 29.0563 17.5989C30.8882 18.6049 32 20.5639 32 22.6605V23.37C32 24.7677 30.6446 25.5619 29.5433 24.9265C27.1608 23.5606 24.6089 22.597 22.004 22.004C22.597 24.6195 23.5606 27.1608 24.9265 29.5539C25.5513 30.6446 24.7571 32.0106 23.497 32.0106H21.6757C20.2674 32.0106 18.9226 31.3011 18.1919 30.094C18.1813 30.0728 18.1602 30.0516 18.1602 30.0304C17.1966 28.4209 14.814 28.4209 13.8504 30.0304C13.8398 30.0516 13.8187 30.0728 13.8187 30.094C13.088 31.3011 11.7538 32.0106 10.0702 32.0106H8.50298C7.24289 32.0106 6.44871 30.6446 7.07346 29.5539C7.14758 29.4375 7.21112 29.3104 7.27465 29.1939C7.29583 29.1621 7.31701 29.1198 7.33819 29.088C8.863 26.3031 9.86896 23.3064 10.3455 20.2568C10.5996 18.6261 9.61482 17.0377 8.03706 16.5612C7.7088 16.4659 7.39113 16.36 7.07346 16.2435C6.86168 16.1694 6.6499 16.0953 6.43812 16.0106C6.44871 16.0106 6.44871 16.0106 6.4593 16C5.70748 15.7247 4.96625 15.407 4.24619 15.0682C4.1403 15.0152 4.02383 14.9623 3.90735 14.9093C3.74851 14.8352 3.60026 14.7505 3.44143 14.6764C3.27201 14.5917 3.10258 14.4964 2.93316 14.4116C1.11185 13.3951 0 11.4361 0 9.33951V8.50298C0 7.24289 1.36598 6.44871 2.45665 7.07346C4.83918 8.43944 7.39113 9.40304 9.99603 9.99603C9.40304 7.38054 8.43944 4.83918 7.07346 2.44606C6.44871 1.36598 7.24289 0 8.50298 0H9.21244C11.4361 0 13.3951 1.11185 14.4011 2.95433C15.0258 4.09795 15.5553 5.26274 16 6.4593C16.4341 5.3051 16.9424 4.16148 17.5354 3.06022C18.552 1.17538 20.5215 0 22.6605 0H23.497C24.7571 0 25.5513 1.36598 24.9265 2.45665C23.5606 4.83918 22.5864 7.39113 22.004 10.0066C24.6195 9.41363 27.1608 8.45003 29.5433 7.08405C30.634 6.4593 32 7.25347 32 8.51357V9.3501C32 11.4361 30.8882 13.3951 29.0563 14.4011Z" fill="#5AED86"/>
</g>
<defs>
<clipPath id="clip0_5849_4190">
<rect width="91.1185" height="32" fill="white"/>
</clipPath>
</defs>
</svg>
